<svg width="14" height="10" xmlns="http://www.w3.org/2000/svg" xmlns:xlink="http://www.w3.org/1999/xlink" xmlns:svgjs="http://svgjs.com/svgjs" viewBox="85 418 14 10"><svg width="14" height="9" xmlns="http://www.w3.org/2000/svg" xmlns:xlink="http://www.w3.org/1999/xlink" xmlns:svgjs="http://svgjs.com/svgjs" viewBox="0 0.585 14 7.831" fill="#fff" x="85" y="419"><svg xmlns="http://www.w3.org/2000/svg" xmlns:xlink="http://www.w3.org/1999/xlink" width="14" height="9" viewBox="0 0.73 13.892 7.77"><path paint-order="stroke fill markers" fill-rule="evenodd" d="M.013.73c.03 1.389.002 2.81.002 4.203V7.03c0 .561-.171 1.47.63 1.47h12.579c.822 0 .654-.832.654-1.403 0-.548-.024-5.829.006-6.106l-3.277 2.543c-.831.634-1.632 1.289-2.458 1.916-.25.191-.513.475-.967.475-.58 0-.74-.194-1.15-.517L3.877 3.73C2.831 2.912 1.68 2.04.66 1.22c-.08-.064-.144-.108-.215-.167C.34.966.13.79.013.73z"/></svg></svg><svg width="14" height="7" xmlns="http://www.w3.org/2000/svg" xmlns:xlink="http://www.w3.org/1999/xlink" xmlns:svgjs="http://svgjs.com/svgjs" viewBox="0 0.54 14 5.92" fill="#fff" x="85" y="418"><svg xmlns="http://www.w3.org/2000/svg" width="14" height="7" viewBox="0.544 0.455 13.15 5.56"><path paint-order="stroke fill markers" fill-rule="evenodd" d="M.545.816c0 .202.154.285.32.41l2.064 1.61c.136.103.272.213.407.315l.822.644c.796.64 1.667 1.293 2.485 1.933.217.17.435.451.746.164L13.532 1.1c.302-.226.161-.646-.24-.646H.914c-.218 0-.37.145-.37.36z"/></svg></svg></svg>