<svg width="16" height="15" xmlns="http://www.w3.org/2000/svg" xmlns:xlink="http://www.w3.org/1999/xlink" xmlns:svgjs="http://svgjs.com/svgjs" viewBox="0.617 0 14.766 15" fill="#fefefe"><svg xmlns="http://www.w3.org/2000/svg" width="16" height="15" viewBox="0.947 0.074 14.108 14.332"><path paint-order="stroke fill markers" fill-rule="evenodd" d="M.947 7.24c0 2.78 1.603 5.222 4.031 6.439a7.195 7.195 0 0 0 2.838.727h.815a7.354 7.354 0 0 0 2.617-.616c2.441-1.095 3.808-3.65 3.808-6.382l-.103-1.24c-.025-.175.011-.271-.177-.271H8.114v2.799h3.919c-.146.626-.238.888-.56 1.344-.13.182-.258.363-.434.517a4.257 4.257 0 0 1-.576.433 4.59 4.59 0 0 1-3.14.512c-1.445-.293-2.617-1.345-3.13-2.637-.471-1.193-.413-2.217.049-3.369.246-.614.653-1.123 1.14-1.546.386-.335.499-.407.977-.648 1.043-.526 2.256-.553 3.347-.117.602.24.773.461 1.207.752l2.03-2.001c-.296-.38-1.44-1.082-1.894-1.27A7.83 7.83 0 0 0 8.497.074h-.81a6.777 6.777 0 0 0-2.671.71l-1.091.644c-.577.39-1.34 1.213-1.736 1.792A7.395 7.395 0 0 0 .947 7.24z"/></svg></svg>