<svg width="19" height="23" xmlns="http://www.w3.org/2000/svg" xmlns:xlink="http://www.w3.org/1999/xlink" xmlns:svgjs="http://svgjs.com/svgjs" viewBox="0.124 0 18.753 23"><svg xmlns="http://www.w3.org/2000/svg" width="19" height="23" viewBox="0.377 0.143 17.937 21.999"><path paint-order="stroke fill markers" fill-rule="evenodd" d="M18.08 18.309a.803.803 0 0 1-.563.234h-4.03a4.14 4.14 0 0 1-1.185 2.373 4.156 4.156 0 0 1-2.957 1.226 4.18 4.18 0 0 1-4.142-3.599h-4.03a.793.793 0 0 1-.758-.552.804.804 0 0 1 .291-.891c.014-.008.3-.222.665-.588.69-.689 1.845-2.105 1.845-3.849 0-1.74.1-3.749.834-5.442a5.866 5.866 0 0 1 1.208-1.814 4.893 4.893 0 0 1 1.83-1.156 2.7 2.7 0 0 1-.414-1.433A2.652 2.652 0 0 1 7.456.927 2.66 2.66 0 0 1 9.35.143c.72 0 1.395.28 1.9.79.5.505.771 1.175.764 1.885 0 .514-.143 1.01-.414 1.433.418.15.81.352 1.163.597.805.559 1.436 1.357 1.875 2.373.736 1.693.835 3.701.835 5.442 0 1.07.42 2.14 1.247 3.179a7.71 7.71 0 0 0 1.255 1.251l.008.006a.794.794 0 0 1 .097 1.21zM6.382 6.531c-.351.35-.636.785-.87 1.327-.62 1.431-.704 3.233-.704 4.808 0 1.85-.914 3.35-1.68 4.282h12.44c-.768-.932-1.681-2.433-1.681-4.282 0-1.575-.084-3.377-.703-4.808-.703-1.623-1.922-2.378-3.837-2.378-1.288 0-2.258.344-2.965 1.05zm.453 12.01a2.595 2.595 0 0 0 2.515 2 2.56 2.56 0 0 0 1.828-.755c.344-.344.583-.774.693-1.245H6.835zM8.578 2.047c-.206.207-.32.48-.32.77A1.097 1.097 0 0 0 9.35 3.911a1.092 1.092 0 1 0-.772-1.863z"/></svg></svg>