<svg width="22" height="22" xmlns="http://www.w3.org/2000/svg" xmlns:xlink="http://www.w3.org/1999/xlink" xmlns:svgjs="http://svgjs.com/svgjs" viewBox="0.003 0 21.995 22"><svg xmlns="http://www.w3.org/2000/svg" width="22" height="22" viewBox="0 0.202 21.365 21.37"><path paint-order="stroke fill markers" fill-rule="evenodd" d="M18.861 11.666V9.012h.626c.346 0 .626-.28.626-.626V5.924a1.88 1.88 0 0 0-1.878-1.878h-2.278c1.03-1.758-.29-3.935-2.301-3.841A2.521 2.521 0 0 0 11.54 1.53l-.922 1.707-.923-1.708A2.52 2.52 0 0 0 7.58.205C5.571.11 4.25 2.288 5.281 4.046H3.13a1.88 1.88 0 0 0-1.878 1.878v2.462c0 .346.28.626.626.626h.626v3.797H.626a.626.626 0 0 0-.626.626v7.511c0 .346.28.626.626.626H3.13a.626.626 0 0 0 .615-.514c1.227.336 2.556.514 3.852.514h5.59c1.366 0 2.673-.65 3.496-1.742l4.307-5.269a1.878 1.878 0 0 0-2.129-2.895zM2.504 15.939v4.381H1.252v-6.26h1.252v1.879zm15.731-10.64c.345 0 .626.28.626.625V7.76h-6.3V5.298h5.674zm-.626 3.713v3.667l-2.623 2.727a1.881 1.881 0 0 0-1.8-1.345h-.626V9.01h5.05zm-4.968-6.885c.218-.4.618-.65 1.073-.672a1.291 1.291 0 0 1 1.192 1.906 1.269 1.269 0 0 1-1.133.685h-2.168l1.036-1.92zm-2.585 3.171h1.252v8.763h-1.013c-.08 0-.16-.006-.239-.017V5.298zM7.463 1.454l.06.001c.455.021.856.272 1.072.67l1.038 1.921H7.464c-.48 0-.904-.256-1.133-.685a1.291 1.291 0 0 1 1.132-1.907zM2.503 7.76V5.924c0-.345.281-.626.627-.626h5.675V7.76H2.504zm6.302 1.252v4.33a4.42 4.42 0 0 0-2.525-.788 4.42 4.42 0 0 0-2.525.787v-4.33h5.05zm11.19 4.789l-4.289 5.247a3.145 3.145 0 0 1-2.52 1.273H7.597c-1.417 0-2.587-.207-3.841-.56V15.94v-.969l.436-.384a3.168 3.168 0 0 1 4.176 0c.536.47 1.225.727 1.927.727h2.891a.627.627 0 0 1 0 1.252H8.738a.626.626 0 0 0 0 1.252h4.868c.517 0 1.016-.217 1.37-.594l4.046-4.207.003-.004.004-.003c.384-.413 1.084-.143 1.084.426a.62.62 0 0 1-.118.366z"/></svg></svg>