<svg width="26" height="27" xmlns="http://www.w3.org/2000/svg" xmlns:xlink="http://www.w3.org/1999/xlink" xmlns:svgjs="http://svgjs.com/svgjs" viewBox="322 743 26 27"><svg width="26" height="27" xmlns="http://www.w3.org/2000/svg" xmlns:xlink="http://www.w3.org/1999/xlink" xmlns:svgjs="http://svgjs.com/svgjs" viewBox="0 0.5 26 26" x="322" y="743"><svg xmlns="http://www.w3.org/2000/svg" xmlns:xlink="http://www.w3.org/1999/xlink" width="26" height="27" viewBox="0 0.862 25.137 25.138"><path paint-order="stroke fill markers" fill-rule="evenodd" d="M24.546 10.57l-1.932-.42a10.52 10.52 0 0 0-.622-1.5l1.07-1.664a.75.75 0 0 0-.1-.937l-3.01-3.01a.751.751 0 0 0-.938-.1L17.35 4.007a10.479 10.479 0 0 0-1.5-.622l-.42-1.932a.751.751 0 0 0-.733-.592H10.44a.751.751 0 0 0-.733.592l-.42 1.932c-.515.168-1.017.376-1.5.622l-1.664-1.07a.751.751 0 0 0-.937.1l-3.01 3.01a.75.75 0 0 0-.1.938l1.07 1.664c-.247.483-.455.985-.623 1.5l-1.932.42a.751.751 0 0 0-.591.733v4.257c0 .353.246.658.591.734l1.932.42c.168.514.376 1.016.622 1.499l-1.07 1.664a.751.751 0 0 0 .101.937l3.01 3.01c.25.25.64.292.937.1l1.664-1.07c.483.246.985.455 1.5.623l.42 1.932a.75.75 0 0 0 .733.591h4.257a.751.751 0 0 0 .734-.591l.42-1.932a10.552 10.552 0 0 0 1.5-.622l1.663 1.07a.75.75 0 0 0 .937-.101l3.01-3.01c.25-.25.292-.64.1-.937l-1.069-1.664c.246-.483.454-.985.622-1.5l1.932-.42a.752.752 0 0 0 .591-.733v-4.257a.751.751 0 0 0-.591-.734zm-.91 4.384l-1.772.385a.752.752 0 0 0-.564.532 9.006 9.006 0 0 1-.833 2.007.751.751 0 0 0 .023.776l.98 1.526-2.153 2.153-1.526-.98a.751.751 0 0 0-.775-.023 9.016 9.016 0 0 1-2.007.832.751.751 0 0 0-.532.564l-.386 1.772h-3.045l-.385-1.772a.751.751 0 0 0-.532-.564 9.019 9.019 0 0 1-2.007-.832.752.752 0 0 0-.776.022l-1.526.981-2.153-2.153.98-1.526a.751.751 0 0 0 .023-.776 9.017 9.017 0 0 1-.832-2.007.752.752 0 0 0-.564-.532l-1.772-.385v-3.046l1.772-.385a.752.752 0 0 0 .564-.532 8.993 8.993 0 0 1 .832-2.007.752.752 0 0 0-.022-.775l-.981-1.526L5.82 4.529l1.526.981a.75.75 0 0 0 .775.022A9.01 9.01 0 0 1 10.13 4.7a.752.752 0 0 0 .532-.564l.385-1.771h3.045l.386 1.771c.059.272.264.49.532.564a9 9 0 0 1 2.007.832.75.75 0 0 0 .775-.022l1.526-.98 2.154 2.153-.981 1.526a.751.751 0 0 0-.023.775c.358.633.638 1.309.833 2.007a.751.751 0 0 0 .563.532l1.772.385v3.046z"/></svg></svg><svg width="13" height="13" xmlns="http://www.w3.org/2000/svg" xmlns:xlink="http://www.w3.org/1999/xlink" xmlns:svgjs="http://svgjs.com/svgjs" x="328" y="750"><svg xmlns="http://www.w3.org/2000/svg" width="13" height="13" viewBox="0.56 0.422 12.018 12.018"><path paint-order="stroke fill markers" fill-rule="evenodd" d="M6.569.422a6.016 6.016 0 0 0-6.01 6.01 6.016 6.016 0 0 0 6.01 6.008 6.016 6.016 0 0 0 6.009-6.009A6.016 6.016 0 0 0 6.568.422zm0 10.516a4.512 4.512 0 0 1-4.507-4.507 4.512 4.512 0 0 1 4.507-4.506 4.512 4.512 0 0 1 4.507 4.506 4.512 4.512 0 0 1-4.507 4.507z"/></svg></svg></svg>