<svg width="68" height="64" viewBox="0 0 68 64" fill="none" xmlns="http://www.w3.org/2000/svg">
<path d="M62.125 7H56.5V4.75C56.5 3.55653 56.0259 2.41193 55.182 1.56802C54.3381 0.724106 53.1935 0.25 52 0.25C50.8065 0.25 49.6619 0.724106 48.818 1.56802C47.9741 2.41193 47.5 3.55653 47.5 4.75V7H38.5V4.75C38.5 3.55653 38.0259 2.41193 37.182 1.56802C36.3381 0.724106 35.1935 0.25 34 0.25C32.8065 0.25 31.6619 0.724106 30.818 1.56802C29.9741 2.41193 29.5 3.55653 29.5 4.75V7H20.5V4.75C20.5 3.55653 20.0259 2.41193 19.182 1.56802C18.3381 0.724106 17.1935 0.25 16 0.25C14.8065 0.25 13.6619 0.724106 12.818 1.56802C11.9741 2.41193 11.5 3.55653 11.5 4.75V7H5.875C4.38316 7 2.95242 7.59263 1.89752 8.64752C0.842632 9.70242 0.25 11.1332 0.25 12.625V57.625C0.25 59.1168 0.842632 60.5476 1.89752 61.6025C2.95242 62.6574 4.38316 63.25 5.875 63.25H37.375C37.6734 63.25 37.9595 63.1315 38.1705 62.9205C38.3815 62.7095 38.5 62.4234 38.5 62.125C38.5 61.8266 38.3815 61.5405 38.1705 61.3295C37.9595 61.1185 37.6734 61 37.375 61H5.875C4.98072 60.9973 4.12382 60.6409 3.49147 60.0085C2.85911 59.3762 2.50267 58.5193 2.5 57.625V22.75H65.5V41.875C65.5 42.1734 65.6185 42.4595 65.8295 42.6705C66.0405 42.8815 66.3266 43 66.625 43C66.9234 43 67.2095 42.8815 67.4205 42.6705C67.6315 42.4595 67.75 42.1734 67.75 41.875V12.625C67.75 11.1332 67.1574 9.70242 66.1025 8.64752C65.0476 7.59263 63.6168 7 62.125 7ZM49.75 4.75C49.75 4.15326 49.9871 3.58097 50.409 3.15901C50.831 2.73705 51.4033 2.5 52 2.5C52.5967 2.5 53.169 2.73705 53.591 3.15901C54.0129 3.58097 54.25 4.15326 54.25 4.75V11.5C54.25 12.0967 54.0129 12.669 53.591 13.091C53.169 13.5129 52.5967 13.75 52 13.75C51.4033 13.75 50.831 13.5129 50.409 13.091C49.9871 12.669 49.75 12.0967 49.75 11.5V4.75ZM31.75 4.75C31.75 4.15326 31.9871 3.58097 32.409 3.15901C32.831 2.73705 33.4033 2.5 34 2.5C34.5967 2.5 35.169 2.73705 35.591 3.15901C36.0129 3.58097 36.25 4.15326 36.25 4.75V11.5C36.25 12.0967 36.0129 12.669 35.591 13.091C35.169 13.5129 34.5967 13.75 34 13.75C33.4033 13.75 32.831 13.5129 32.409 13.091C31.9871 12.669 31.75 12.0967 31.75 11.5V4.75ZM13.75 4.75C13.75 4.15326 13.9871 3.58097 14.409 3.15901C14.831 2.73705 15.4033 2.5 16 2.5C16.5967 2.5 17.169 2.73705 17.591 3.15901C18.0129 3.58097 18.25 4.15326 18.25 4.75V11.5C18.25 12.0967 18.0129 12.669 17.591 13.091C17.169 13.5129 16.5967 13.75 16 13.75C15.4033 13.75 14.831 13.5129 14.409 13.091C13.9871 12.669 13.75 12.0967 13.75 11.5V4.75ZM65.5 20.5H2.5V12.625C2.50267 11.7307 2.85911 10.8738 3.49147 10.2415C4.12382 9.60911 4.98072 9.25267 5.875 9.25H11.5V11.5C11.5 12.6935 11.9741 13.8381 12.818 14.682C13.6619 15.5259 14.8065 16 16 16C17.1935 16 18.3381 15.5259 19.182 14.682C20.0259 13.8381 20.5 12.6935 20.5 11.5V9.25H29.5V11.5C29.5 12.6935 29.9741 13.8381 30.818 14.682C31.6619 15.5259 32.8065 16 34 16C35.1935 16 36.3381 15.5259 37.182 14.682C38.0259 13.8381 38.5 12.6935 38.5 11.5V9.25H47.5V11.5C47.5 12.6935 47.9741 13.8381 48.818 14.682C49.6619 15.5259 50.8065 16 52 16C53.1935 16 54.3381 15.5259 55.182 14.682C56.0259 13.8381 56.5 12.6935 56.5 11.5V9.25H62.125C63.0193 9.25267 63.8762 9.60911 64.5085 10.2415C65.1409 10.8738 65.4973 11.7307 65.5 12.625V20.5Z" fill="white"/>
</svg>
