<svg width="60" height="68" viewBox="0 0 60 68" fill="none" xmlns="http://www.w3.org/2000/svg">
<path d="M9.25004 21.625H18.25V32.875H13.75C13.129 32.875 12.625 33.379 12.625 34V52C12.625 52.621 13.129 53.125 13.75 53.125H16V66.625C16 67.246 16.504 67.75 17.125 67.75H50.875C51.496 67.75 52 67.246 52 66.625V53.125H54.25C54.8711 53.125 55.375 52.621 55.375 52V34C55.375 33.379 54.8711 32.875 54.25 32.875H52.3983L53.674 28.7305L55.6001 31.3C55.8509 31.6341 56.2672 31.8006 56.68 31.7354C57.0929 31.6679 57.4349 31.3776 57.5677 30.9805L59.8177 24.2305C59.9347 23.8795 59.8717 23.4948 59.6501 23.1989L56.2751 18.6989C56.0219 18.3603 55.6034 18.1926 55.1815 18.2658C54.7653 18.3389 54.4244 18.6392 54.2995 19.0431L50.875 30.175L47.4506 19.0442C47.3268 18.6392 46.9848 18.34 46.5686 18.2669C46.1455 18.196 45.7282 18.3614 45.475 18.7L42.1 23.2C41.8784 23.4959 41.8165 23.8806 41.9324 24.2316L44.1824 30.9816C44.3152 31.3787 44.656 31.669 45.07 31.7365C45.4874 31.8029 45.8992 31.6364 46.15 31.3011L48.0772 28.7316L49.3518 32.875H39.625V21.625C39.625 17.2825 36.0925 13.75 31.75 13.75H31.6263C33.0888 12.319 34 10.3278 34 8.125C34 3.7825 30.4675 0.25 26.125 0.25C21.7825 0.25 18.25 3.7825 18.25 8.125C18.25 10.3278 19.1613 12.319 20.6238 13.75H11.9658L5.54541 7.32963C5.10554 6.88975 4.39454 6.88975 3.95466 7.32963L0.579662 10.7046C0.160037 11.1231 0.138662 11.7948 0.529037 12.2414L8.40404 21.2414C8.61779 21.4844 8.92491 21.625 9.25004 21.625ZM55.8003 21.8174L57.4957 24.0786L56.1108 28.2321L54.4908 26.0721L55.8003 21.8174ZM45.6382 28.2321L44.2533 24.0786L45.9487 21.8174L47.2582 26.0721L45.6382 28.2321ZM49.75 65.5H18.25V53.125H25V62.125C25 62.503 25.1902 62.8563 25.5063 63.0644C25.8213 63.2725 26.2207 63.3085 26.5683 63.1589L34 59.974L41.4318 63.1589C41.5735 63.2196 41.7243 63.25 41.875 63.25C42.0922 63.25 42.3082 63.187 42.4938 63.0644C42.8099 62.8563 43 62.503 43 62.125V53.125H49.75V65.5ZM27.25 53.125H40.75V60.4184L34.4433 57.7161C34.1598 57.5946 33.8403 57.5946 33.5568 57.7161L27.25 60.4184V53.125ZM53.125 50.875H50.875H17.125H14.875V35.125H53.125V50.875ZM20.5 8.125C20.5 5.02338 23.0234 2.5 26.125 2.5C29.2267 2.5 31.75 5.02338 31.75 8.125C31.75 11.2266 29.2267 13.75 26.125 13.75C23.0234 13.75 20.5 11.2266 20.5 8.125ZM4.75004 9.71575L10.7047 15.6704C10.915 15.8819 11.2019 16 11.5 16H31.75C34.8517 16 37.375 18.5234 37.375 21.625V32.875H34V20.5H31.75V32.875H25V24.1405L27.1319 19.8779L25.1193 18.871L22.8693 23.371C22.7905 23.5274 22.75 23.7006 22.75 23.875V32.875H20.5V20.5C20.5 19.879 19.996 19.375 19.375 19.375H9.76079L2.91516 11.5506L4.75004 9.71575Z" fill="white"/>
</svg>
